grf
version=1
nRows=13
nColumns=73
inDegrees=yes
endheader
time	ground_force_1_vx	ground_force_1_vy	ground_force_1_vz	ground_force_1_px	ground_force_1_py	ground_force_1_pz	ground_moment_1_mx	ground_moment_1_my	ground_moment_1_mz	ground_force_2_vx	ground_force_2_vy	ground_force_2_vz	ground_force_2_px	ground_force_2_py	ground_force_2_pz	ground_moment_2_mx	ground_moment_2_my	ground_moment_2_mz	ground_force_3_vx	ground_force_3_vy	ground_force_3_vz	ground_force_3_px	ground_force_3_py	ground_force_3_pz	ground_moment_3_mx	ground_moment_3_my	ground_moment_3_mz	ground_force_4_vx	ground_force_4_vy	ground_force_4_vz	ground_force_4_px	ground_force_4_py	ground_force_4_pz	ground_moment_4_mx	ground_moment_4_my	ground_moment_4_mz	ground_force_5_vx	ground_force_5_vy	ground_force_5_vz	ground_force_5_px	ground_force_5_py	ground_force_5_pz	ground_moment_5_mx	ground_moment_5_my	ground_moment_5_mz	ground_force_6_vx	ground_force_6_vy	ground_force_6_vz	ground_force_6_px	ground_force_6_py	ground_force_6_pz	ground_moment_6_mx	ground_moment_6_my	ground_moment_6_mz	ground_force_7_vx	ground_force_7_vy	ground_force_7_vz	ground_force_7_px	ground_force_7_py	ground_force_7_pz	ground_moment_7_mx	ground_moment_7_my	ground_moment_7_mz	ground_force_8_vx	ground_force_8_vy	ground_force_8_vz	ground_force_8_px	ground_force_8_py	ground_force_8_pz	ground_moment_8_mx	ground_moment_8_my	ground_moment_8_mz
3.545000	3.352649	442.474324	20.230058	0.390522	0.000000	0.308811	-0.000000	-1.054703	-0.000000	0.000000	0.000000	0.000000	0.000000	0.000000	0.000000	0.000000	0.000000	0.000000	-5.855402	326.490486	20.834301	0.417061	0.000000	0.311031	0.000000	-1.030782	0.000000	9.210986	116.026780	-0.601160	0.323555	0.000000	0.309839	-0.000000	0.462798	-0.000000	-5.952779	326.667592	20.208140	0.417704	0.000000	0.308323	-0.000000	-0.936865	0.000000	8.719107	112.958237	-0.263031	0.327195	0.000000	0.312045	0.000000	0.419592	0.000000	3.129231	436.539933	19.309394	0.393565	0.000000	0.308727	-0.000000	-0.927473	0.000000	0.000000	0.000000	0.000000	0.000000	0.000000	0.000000	0.000000	0.000000	0.000000
3.546000	3.541729	443.122770	20.157885	0.389540	0.000000	0.308931	-0.000000	-1.073013	-0.000000	0.000000	0.000000	0.000000	0.000000	0.000000	0.000000	0.000000	0.000000	0.000000	-5.865625	325.660690	20.966290	0.416314	0.000000	0.311233	0.000000	-1.034271	0.000000	9.411504	117.502299	-0.805063	0.322912	0.000000	0.309710	-0.000000	0.471350	-0.000000	-6.012034	325.782169	20.349821	0.416985	0.000000	0.308503	-0.000000	-0.942121	0.000000	8.961686	114.400894	-0.467531	0.326732	0.000000	0.311863	0.000000	0.428980	0.000000	3.313231	437.098690	19.246422	0.392664	0.000000	0.308829	0.000000	-0.944676	0.000000	0.000000	0.000000	0.000000	0.000000	0.000000	0.000000	0.000000	0.000000	0.000000
3.547000	3.727201	443.771519	20.077293	0.388544	0.000000	0.309047	-0.000000	-1.091802	-0.000000	0.000000	0.000000	0.000000	0.000000	0.000000	0.000000	0.000000	0.000000	0.000000	-5.854677	324.835845	21.091078	0.415557	0.000000	0.311435	0.000000	-1.037053	0.000000	9.586972	118.972831	-1.010257	0.322254	0.000000	0.309570	-0.000000	0.478838	-0.000000	-6.057592	324.923646	20.490301	0.416254	0.000000	0.308689	-0.000000	-0.947310	0.000000	9.183700	115.827954	-0.674501	0.326274	0.000000	0.311681	0.000000	0.436983	0.000000	3.490318	437.668732	19.179839	0.391756	0.000000	0.308932	0.000000	-0.963417	0.000000	0.000000	0.000000	0.000000	0.000000	0.000000	0.000000	0.000000	0.000000	0.000000
3.548000	3.910056	444.418112	19.986612	0.387536	0.000000	0.309159	-0.000000	-1.111144	-0.000000	0.000000	0.000000	0.000000	0.000000	0.000000	0.000000	0.000000	0.000000	0.000000	-5.819604	324.006994	21.207097	0.414792	0.000000	0.311637	0.000000	-1.039023	0.000000	9.735454	120.444963	-1.216834	0.321573	0.000000	0.309420	-0.000000	0.485107	-0.000000	-6.086991	324.085407	20.627582	0.415514	0.000000	0.308878	-0.000000	-0.952157	0.000000	9.383138	117.244991	-0.883288	0.325810	0.000000	0.311498	0.000000	0.443831	0.000000	3.660940	438.249000	19.108295	0.390840	0.000000	0.309035	0.000000	-0.983168	0.000000	0.000000	0.000000	0.000000	0.000000	0.000000	0.000000	0.000000	0.000000	0.000000
3.549000	4.091723	445.060876	19.884852	0.386515	0.000000	0.309266	-0.000000	-1.130951	-0.000000	0.000000	0.000000	0.000000	0.000000	0.000000	0.000000	0.000000	0.000000	0.000000	-5.757140	323.165504	21.313221	0.414025	0.000000	0.311839	0.000000	-1.039961	0.000000	9.855138	121.925733	-1.424651	0.320867	0.000000	0.309261	-0.000000	0.490030	-0.000000	-6.097482	323.259781	20.759972	0.414765	0.000000	0.309071	-0.000000	-0.956586	0.000000	9.558051	118.658712	-1.093422	0.325331	0.000000	0.311312	-0.000000	0.449647	0.000000	3.825896	438.838513	19.030555	0.389915	0.000000	0.309138	0.000000	-1.003744	0.000000	0.000000	0.000000	0.000000	0.000000	0.000000	0.000000	0.000000	0.000000	0.000000
3.550000	4.273873	445.698993	19.772176	0.385485	0.000000	0.309369	-0.000000	-1.150774	-0.000000	0.000000	0.000000	0.000000	0.000000	0.000000	0.000000	0.000000	0.000000	0.000000	-5.664169	322.303554	21.408953	0.413260	0.000000	0.312039	0.000000	-1.039545	0.000000	9.944607	123.422212	-1.633043	0.320133	0.000000	0.309096	-0.000000	0.493699	-0.000000	-6.085936	322.438312	20.885788	0.414013	0.000000	0.309268	-0.000000	-0.960524	0.000000	9.706515	120.077015	-1.304741	0.324825	0.000000	0.311123	-0.000000	0.454347	0.000000	3.986391	439.436700	18.945096	0.388977	0.000000	0.309239	0.000000	-1.025189	0.000000	0.000000	0.000000	0.000000	0.000000	0.000000	0.000000	0.000000	0.000000	0.000000
3.551000	4.457624	446.331984	19.649469	0.384448	0.000000	0.309469	-0.000000	-1.169940	-0.000000	0.000000	0.000000	0.000000	0.000000	0.000000	0.000000	0.000000	0.000000	0.000000	-5.538745	321.414091	21.494314	0.412503	0.000000	0.312239	0.000000	-1.037383	0.000000	10.003055	124.941038	-1.841140	0.319374	0.000000	0.308929	-0.000000	0.496329	-0.000000	-6.048882	321.612574	21.003573	0.413262	0.000000	0.309468	-0.000000	-0.963760	0.000000	9.826686	121.508411	-1.516983	0.324285	0.000000	0.310933	-0.000000	0.457837	0.000000	4.144053	440.043638	18.850713	0.388027	0.000000	0.309340	0.000000	-1.047420	0.000000	0.000000	0.000000	0.000000	0.000000	0.000000	0.000000	0.000000	0.000000	0.000000
3.552000	4.643056	446.959295	19.517952	0.383405	0.000000	0.309568	-0.000000	-1.187885	-0.000000	0.000000	0.000000	0.000000	0.000000	0.000000	0.000000	0.000000	0.000000	0.000000	-5.380860	320.490862	21.569936	0.411755	0.000000	0.312441	0.000000	-1.033138	0.000000	10.030575	126.487964	-2.048348	0.318592	0.000000	0.308764	-0.000000	0.498094	-0.000000	-5.982716	320.774811	21.112418	0.412517	0.000000	0.309670	-0.000000	-0.965934	0.000000	9.917035	122.961394	-1.729410	0.323703	0.000000	0.310744	-0.000000	0.460230	0.000000	4.300961	440.660059	18.747229	0.387065	0.000000	0.309441	0.000000	-1.069954	0.000000	0.000000	0.000000	0.000000	0.000000	0.000000	0.000000	0.000000	0.000000	0.000000
3.553000	4.829882	447.580599	19.379377	0.382359	0.000000	0.309668	-0.000000	-1.204417	-0.000000	0.000000	0.000000	0.000000	0.000000	0.000000	0.000000	0.000000	0.000000	0.000000	-5.192282	319.528790	21.637486	0.411020	0.000000	0.312645	0.000000	-1.026720	0.000000	10.028670	128.067790	-2.254574	0.317791	0.000000	0.308603	-0.000000	0.499100	-0.000000	-5.884531	319.917864	21.211904	0.411784	0.000000	0.309878	-0.000000	-0.966553	0.000000	9.976587	124.443908	-1.941016	0.323079	0.000000	0.310560	-0.000000	0.461793	0.000000	4.459045	441.286743	18.635224	0.386092	0.000000	0.309543	0.000000	-1.091990	0.000000	0.000000	0.000000	0.000000	0.000000	0.000000	0.000000	0.000000	0.000000	0.000000
3.554000	5.018351	448.196515	19.236112	0.381311	0.000000	0.309769	-0.000000	-1.219740	-0.000000	0.000000	0.000000	0.000000	0.000000	0.000000	0.000000	0.000000	0.000000	0.000000	-4.976003	318.524299	21.699717	0.410299	0.000000	0.312851	0.000000	-1.018375	0.000000	10.000594	129.684749	-2.460201	0.316976	0.000000	0.308446	-0.000000	0.499468	-0.000000	-5.753193	319.034909	21.302035	0.411064	0.000000	0.310090	-0.000000	-0.965092	0.000000	10.005179	125.962866	-2.151063	0.322410	0.000000	0.310385	-0.000000	0.462735	0.000000	4.619280	441.923777	18.515438	0.385110	0.000000	0.309648	0.000000	-1.112749	0.000000	0.000000	0.000000	0.000000	0.000000	0.000000	0.000000	0.000000	0.000000	0.000000
3.555000	5.209291	448.808979	19.090572	0.380265	0.000000	0.309870	-0.000000	-1.234272	-0.000000	0.000000	0.000000	0.000000	0.000000	0.000000	0.000000	0.000000	0.000000	0.000000	-4.735951	317.475190	21.759805	0.409595	0.000000	0.313060	0.000000	-1.008558	0.000000	9.951113	131.343012	-2.665983	0.316152	0.000000	0.308291	-0.000000	0.499369	-0.000000	-5.589606	318.119721	21.383619	0.410360	0.000000	0.310308	-0.000000	-0.961198	0.000000	10.003987	127.523880	-2.359373	0.321698	0.000000	0.310222	-0.000000	0.463153	0.000000	4.781941	442.570548	18.388851	0.384119	0.000000	0.309756	0.000000	-1.131773	0.000000	0.000000	0.000000	0.000000	0.000000	0.000000	0.000000	0.000000	0.000000	0.000000
3.556000	5.403547	449.420929	18.944586	0.379223	0.000000	0.309972	-0.000000	-1.248398	-0.000000	0.000000	0.000000	0.000000	0.000000	0.000000	0.000000	0.000000	0.000000	0.000000	-4.476878	316.380201	21.820614	0.408912	0.000000	0.313274	-0.000000	-0.997705	0.000000	9.885841	133.046809	-2.872951	0.315326	0.000000	0.308137	-0.000000	0.499002	-0.000000	-5.396177	317.167210	21.458627	0.409672	0.000000	0.310532	-0.000000	-0.954877	0.000000	9.975999	129.131464	-2.566284	0.320948	0.000000	0.310071	-0.000000	0.463131	0.000000	4.947613	443.226480	18.257092	0.383119	0.000000	0.309870	0.000000	-1.149037	0.000000	0.000000	0.000000	0.000000	0.000000	0.000000	0.000000	0.000000	0.000000	0.000000
3.557000	5.601566	450.035604	18.799515	0.378192	0.000000	0.310075	-0.000000	-1.262308	-0.000000	0.000000	0.000000	0.000000	0.000000	0.000000	0.000000	0.000000	0.000000	0.000000	-4.204131	315.238668	21.884557	0.408254	0.000000	0.313495	-0.000000	-0.986136	0.000000	9.810587	134.800069	-3.082151	0.314503	0.000000	0.307983	-0.000000	0.498637	-0.000000	-5.176351	316.173537	21.529790	0.408999	0.000000	0.310762	-0.000000	-0.946453	0.000000	9.925886	130.789538	-2.772525	0.320164	0.000000	0.309928	-0.000000	0.462797	0.000000	5.117523	443.891656	18.122159	0.382111	0.000000	0.309987	0.000000	-1.164838	0.000000	0.000000	0.000000	0.000000	0.000000	0.000000	0.000000	0.000000	0.000000	0.000000
